<svg xmlns="http://www.w3.org/2000/svg" viewBox="0 0 122.88 121.08"><path d="M15.36 86.24c1.14-.89 2.79-.68 3.68.46.89 1.14.68 2.79-.46 3.68L5.35 100.66l-.1 13.85 16.25-.91 8.82-14.02a2.622 2.622 0 0 1 3.61-.82c1.22.77 1.59 2.39.82 3.61l-9.5 15.09c-.43.73-1.21 1.24-2.12 1.29L2.76 119.9h-.15a2.614 2.614 0 0 1-2.6-2.63l.13-17.71c-.06-.85.29-1.71 1.01-2.27l14.21-11.05zm24.73-32.31c6.6-19.73 15.5-33.72 28.02-42.53C81.1 2.25 97.8-1.21 119.68.37a2.89 2.89 0 0 1 2.69 2.83c2.12 23.69-2.48 40.49-12.28 53.22-9.43 12.24-23.58 20.52-41.14 27.47v23.13c0 1.13-.65 2.12-1.6 2.59l-17.88 11.05a2.89 2.89 0 0 1-3.98-.94c-.22-.36-.36-.75-.41-1.14-3.96-30.26-8.17-31.71-32.91-40.27-2.96-1.02-6.15-2.13-8.31-2.89a2.895 2.895 0 0 1-1.77-3.69c.11-.32.28-.61.48-.87l11.79-16.8c.59-.84 1.55-1.28 2.5-1.23l23.23 1.1zm50.62-22.29a8.78 8.78 0 0 0-6.24-2.58c-2.43 0-4.64.99-6.24 2.58a8.78 8.78 0 0 0-2.58 6.24c0 2.43.99 4.64 2.58 6.24a8.78 8.78 0 0 0 6.24 2.58c2.43 0 4.64-.99 6.24-2.58a8.78 8.78 0 0 0 2.58-6.24c0-2.44-.99-4.64-2.58-6.24z"/></svg>