<svg data-name="Layer 1" width="20" height="20" xmlns="http://www.w3.org/2000/svg"><path d="M7.904 0C5.861 0 4 .278 2.648.73 1.134 1.234.2 1.99.2 2.883c0 4.267.01 9.18.02 13.447v.315c0 .932 1.718 1.713 2.433 1.953 1.357.45 3.219.73 5.262.73.431 0 .852-.013 1.264-.037a7.13 7.112 0 0 1-.705-.926h-.559c-1.946 0-3.697-.26-4.957-.68-1.028-.343-1.69-.75-1.777-1.156v-3.123a6.049 6.034 0 0 0 1.468.694c1.233.41 2.888.679 4.721.716l.006.006v-.215a7.006 6.988 0 0 1 .04-.74c-1.747-.04-3.307-.291-4.458-.674-1.028-.343-1.69-.75-1.777-1.156V8.914a6.049 6.034 0 0 0 1.468.691c1.352.453 3.213.732 5.26.717.318 0 .63-.006.938-.02a7.165 7.147 0 0 1 .58-.65c.032-.03.065-.062.101-.091.095-.092.192-.182.293-.268-.61.057-1.25.088-1.916.088-1.945 0-3.697-.263-4.947-.678-1.028-.343-1.69-.753-1.777-1.158v-3.2a6.111 6.096 0 0 0 1.468.692c1.352.451 3.207.73 5.25.73 2.044 0 3.906-.279 5.262-.73a6.04 6.024 0 0 0 1.49-.703v3.12a.452.451 0 0 1-.027.151 6.885 6.867 0 0 1 .992.104V2.811a.478.477 0 0 0-.027-.165c-.15-.79-1.068-1.463-2.424-1.916C11.808.278 9.948 0 7.904 0zm0 .957c1.948 0 3.699.26 4.957.678 1.112.368 1.795.811 1.795 1.248 0 .436-.69.884-1.795 1.252-1.258.425-3.011.676-4.957.676-1.945 0-3.697-.251-4.957-.676v-.008C.54 3.324.603 2.41 2.947 1.629c1.26-.412 3.01-.672 4.957-.672zm6.485 8.252a5.396 5.383 0 0 0-3.823 1.58 5.406 5.392 0 0 0 0 7.629 5.406 5.392 0 0 0 7.649 0 5.406 5.392 0 0 0 0-7.629 5.401 5.387 0 0 0-3.824-1.58zm-.006.852a4.57 4.559 0 0 1 3.232 1.335 4.544 4.533 0 0 1 1.338 3.22 4.57 4.559 0 1 1-7.11-3.788 4.57 4.559 0 0 1 2.54-.767zM12.4 11.586l.467.7c-1.025.743-1.523 2.01-.707 3.42.082-1 .64-1.652 1.62-2.046l.456.688.46-2.287-.01-.002zm4.092 2.068c-.081 1-.64 1.651-1.619 2.045l-.459-.685-.451 2.279.004.01 2.285.47-.467-.699c1.033-.744 1.523-2.01.707-3.42z" fill="#fff"/></svg>